<?xml version="1.0" encoding="utf-8"?>
<!-- Generator: Adobe Illustrator 24.3.0, SVG Export Plug-In . SVG Version: 6.00 Build 0)  -->
<svg version="1.1" id="Layer_1" xmlns="http://www.w3.org/2000/svg" xmlns:xlink="http://www.w3.org/1999/xlink" x="0px" y="0px"
	 viewBox="0 0 512 138" style="enable-background:new 0 0 512 138;" xml:space="preserve">
<style type="text/css">
	.st0{fill:#29568C;}
</style>
<path class="st0" d="M68.9,0c-4.1,0-8.1,0.4-12,1C24.5,6.6,0,35,0,69c0,25.7,14,48,34.6,60c7.3,4.1,15.3,7,23.9,8.3
	c3.4,0.5,6.8,0.8,10.4,0.8c23.5,0,44.3-11.8,56.7-29.9c7.6-11.2,12.1-24.6,12.1-39.3c0-24.8-13.1-46.7-32.6-58.8
	c-0.1-0.1,0,0-0.1-0.1l-1.8,2.8c0,0,0.1,0,0.1,0.1c4.4,2.8,8.4,6.1,12,9.9c1.9,2,3.6,4.1,5.3,6.4v0.1c0,15.9-23.6,28.6-52.9,28.6
	c-8.4,0-16.4-1-23.4-2.9C49.3,28.7,62,8.8,77.9,3.9c5.4,0.6,10.5,2,15.3,4c0,0,1.6-2.6,1.4-2.9c-0.1-0.1-4.1-1.6-6.3-2.3
	C82.2,0.9,75.7,0,68.9,0z M46.9,7.8c-11.1,8.8-20,21.2-25.1,35.8c-2.9-2.6-4.9-5.5-5.9-8.7C22.8,22.6,33.6,13,46.9,7.8z M63.9,27.9
	c-6.3,0-11.4,5-11.4,11.3s5.1,11.4,11.4,11.4s11.4-5.1,11.4-11.4C75.3,33,70.2,27.9,63.9,27.9z M129.9,49.1c1.5,5.4,2.4,11,2.4,16.9
	c0,7.2-1.3,14.1-3.5,20.6c-7.4,21.2-25.8,37.4-48.4,41.1c-6-4.4-8.9-21.5-8.9-33.7c0-1.9,0.1-3.8,0.3-5.5h-0.1
	c-8.8,0-17.1-0.9-25-2.5c-0.9,12.7,3.6,30.1,7.5,40.6c-0.8-0.3-1.6-0.4-2.4-0.6c-5.6-12-9-27.1-9.5-43.5c8.4,2.3,17.9,3.4,27.9,3
	C102.7,84.2,128.8,68.1,129.9,49.1z M8.5,54.9c1.1,5,3.9,9.7,8,13.7c-0.1,1.9-0.1,3.9-0.1,5.9c0,11,1.9,21.6,5.4,31.1
	C12.9,94.8,7.5,80.9,7.5,65.9C7.5,62.1,7.9,58.5,8.5,54.9z M161.8,118.1c0,0.9-0.1,1.6-0.4,2.3c-0.3,0.8-0.6,1.3-1.1,1.8
	c-0.5,0.5-1,0.9-1.6,1.1c-0.6,0.3-1.4,0.4-2.1,0.4s-1.5-0.1-2.1-0.4c-0.6-0.3-1.1-0.6-1.6-1.1c-0.5-0.5-0.9-1.1-1.1-1.9
	c-0.3-0.8-0.4-1.6-0.4-2.6V105h2.8v12.5c0,0.6,0,1.1,0.1,1.5s0.3,0.8,0.5,1c0.3,0.3,0.5,0.5,0.8,0.5c0.3,0.1,0.6,0.1,1,0.1
	s0.8-0.1,1-0.3c0.3-0.1,0.5-0.4,0.8-0.6c0.3-0.3,0.4-0.6,0.5-1c0.1-0.4,0.1-0.9,0.1-1.4v-0.6c0-0.5-0.1-1-0.3-1.5
	c-0.1-0.5-0.4-0.9-0.8-1.4c-0.1-0.3-0.4-0.4-0.5-0.6c-0.1-0.3-0.3-0.4-0.4-0.6c-0.1-0.3-0.3-0.5-0.3-0.6c-0.1-0.3-0.1-0.5-0.1-0.8
	c0-0.1,0-0.4,0-0.6s0.1-0.4,0.1-0.6c0.1-0.3,0.1-0.4,0.3-0.6c0.1-0.3,0.3-0.5,0.5-0.8l2.9,0.8c-0.1,0.1-0.1,0.1-0.3,0.3
	c-0.1,0.1-0.1,0.1-0.3,0.3c-0.1,0.1-0.1,0.1-0.1,0.3l-0.1,0.1c-0.1,0.1-0.3,0.4-0.4,0.5c-0.1,0.1-0.1,0.3-0.1,0.4
	c0,0.3,0.1,0.5,0.4,0.9c0.3,0.3,0.5,0.6,0.8,0.9l0,0c0.4,0.5,0.8,1,1,1.5c0.3,0.6,0.4,1.3,0.4,2v1.6H161.8z M174.3,118.2
	c0,3.8-1.8,5.5-5.3,5.5c-0.9,0-1.6-0.1-2.3-0.4c-0.6-0.3-1.1-0.6-1.6-1.1c-0.4-0.5-0.8-1-1-1.8c-0.3-0.6-0.4-1.4-0.4-2.1v-0.8
	c0-0.3,0-0.5,0.1-0.9c0.1-0.3,0.3-0.6,0.4-0.9c0.1-0.3,0.4-0.6,0.5-1c0.3-0.4,0.4-0.6,0.6-1l2.1,1c-0.3,0.6-0.5,1.1-0.6,1.5
	c-0.1,0.5-0.3,0.8-0.3,1v0.9c0,0.5,0,0.9,0.1,1.3c0.1,0.4,0.3,0.6,0.4,0.9c0.3,0.3,0.4,0.4,0.8,0.5c0.3,0.1,0.6,0.1,1.1,0.1
	c0.4,0,0.8,0,1.1-0.1c0.3-0.1,0.5-0.3,0.8-0.5c0.3-0.3,0.4-0.5,0.5-1c0.1-0.4,0.1-0.9,0.1-1.4v-1.3c0-0.5-0.1-0.9-0.3-1.4
	c-0.1-0.4-0.4-0.8-0.5-1.1c-0.3-0.4-0.5-0.6-0.8-1c-0.3-0.4-0.6-0.6-0.9-0.9c-0.4-0.4-0.6-0.8-1-1c-0.3-0.4-0.6-0.8-0.9-1.1
	c-0.3-0.4-0.5-0.9-0.6-1.3c-0.1-0.5-0.3-1-0.3-1.6v-2h2.6v2c0,0.4,0,0.6,0.1,1c0.1,0.3,0.3,0.6,0.5,0.9c0.3,0.3,0.4,0.6,0.6,0.9
	c0.3,0.3,0.5,0.6,0.8,0.9l0,0c0.4,0.4,0.8,0.8,1.1,1.1c0.4,0.4,0.6,0.9,1,1.4c0.3,0.5,0.5,1,0.6,1.5c0.1,0.5,0.3,1.1,0.3,1.9v1.4
	H174.3z M199.8,118.2c0,3.8-1.8,5.5-5.3,5.5c-0.9,0-1.6-0.1-2.3-0.4c-0.6-0.3-1.1-0.6-1.6-1.1c-0.4-0.5-0.8-1-1-1.8
	c-0.3-0.6-0.4-1.4-0.4-2.1v-0.8c0-0.3,0-0.5,0.1-0.9c0.1-0.3,0.3-0.6,0.4-0.9c0.1-0.3,0.3-0.6,0.5-1s0.4-0.6,0.6-1l2.1,1
	c-0.3,0.6-0.5,1.1-0.6,1.5c-0.1,0.5-0.3,0.8-0.3,1v0.9c0,0.5,0,0.9,0.1,1.3c0.1,0.4,0.3,0.6,0.4,0.9c0.3,0.3,0.4,0.4,0.8,0.5
	c0.3,0.1,0.6,0.1,1.1,0.1c0.4,0,0.8,0,1.1-0.1c0.3-0.1,0.5-0.3,0.8-0.5c0.3-0.3,0.4-0.5,0.5-1c0.1-0.4,0.1-0.9,0.1-1.4v-1.3
	c0-0.5-0.1-0.9-0.3-1.4c-0.1-0.4-0.4-0.8-0.5-1.1c-0.3-0.4-0.5-0.6-0.8-1c-0.3-0.4-0.6-0.6-0.9-0.9c-0.4-0.4-0.6-0.8-1-1
	c-0.4-0.4-0.6-0.8-0.9-1.1c-0.3-0.4-0.5-0.9-0.6-1.3c-0.1-0.5-0.3-1-0.3-1.6v-2h2.6v2c0,0.4,0,0.6,0.1,1c0.1,0.3,0.3,0.6,0.5,0.9
	c0.3,0.3,0.4,0.6,0.6,0.9s0.5,0.6,0.8,0.9l0,0c0.4,0.4,0.8,0.8,1.1,1.1c0.4,0.4,0.6,0.9,1,1.4c0.3,0.5,0.5,1,0.6,1.5
	c0.1,0.5,0.3,1.1,0.3,1.9v1.4H199.8z M219,117.7c0,0.4-0.1,0.8-0.3,1.3c-0.1,0.4-0.4,0.9-0.6,1.4c-0.3,0.5-0.5,0.9-0.9,1.3
	c-0.4,0.4-0.8,0.8-1.1,1.1c-0.4,0.4-0.9,0.6-1.4,0.8c-0.5,0.3-1,0.3-1.6,0.3v-2.6c0.4,0,0.8-0.1,1.1-0.4c0.4-0.3,0.6-0.5,1-0.9
	c0.3-0.4,0.5-0.8,0.6-1.1c0.1-0.4,0.3-0.8,0.3-1.1v-1.8c0-0.6-0.1-1.1-0.3-1.5c-0.1-0.4-0.4-0.8-0.5-1c-0.3-0.3-0.5-0.4-0.8-0.5
	c-0.3-0.1-0.5-0.1-0.6-0.1c-0.3,0-0.5,0-0.8,0.1c-0.3,0.1-0.5,0.3-0.8,0.5c-0.3,0.3-0.4,0.5-0.5,0.9c-0.1,0.4-0.3,0.8-0.3,1.4v3.1
	H209v-3.1c0-0.5-0.1-1-0.3-1.4c-0.1-0.4-0.4-0.6-0.5-0.9c-0.3-0.3-0.5-0.4-0.8-0.5c-0.3-0.1-0.5-0.1-0.8-0.1c-0.3,0-0.5,0-0.8,0.1
	c-0.3,0.1-0.5,0.3-0.8,0.5c-0.3,0.3-0.4,0.5-0.5,1c-0.1,0.4-0.3,0.9-0.3,1.5v1.8c0,0.4,0.1,0.6,0.3,1.1c0.1,0.4,0.4,0.8,0.6,1.1
	s0.6,0.6,1,0.9c0.4,0.3,0.8,0.4,1.3,0.4v2.5c-0.6,0-1.3-0.1-1.8-0.3c-0.5-0.3-1-0.5-1.5-0.8c-0.4-0.4-0.8-0.8-1.1-1.1
	c-0.4-0.4-0.6-0.9-0.9-1.3c-0.3-0.5-0.4-0.9-0.5-1.4c-0.1-0.4-0.1-0.9-0.1-1.1V116c0-0.9,0.1-1.8,0.3-2.6c0.1-0.9,0.4-1.8,0.8-2.5
	s0.9-1.5,1.5-2.3c0.6-0.6,1.4-1.3,2.4-1.8c1-0.5,2.1-0.9,3.4-1.1c1.4-0.3,2.9-0.4,4.6-0.4v2.6c-2.1,0-4,0.3-5.5,0.8
	c-1.5,0.5-2.6,1.1-3.4,2l0.8-0.1c0.4,0,0.6,0,1,0.1c0.4,0.1,0.6,0.1,1,0.4c0.4,0.1,0.6,0.4,0.9,0.6c0.3,0.3,0.5,0.6,0.8,1
	c0.3-0.4,0.5-0.8,0.9-1c0.3-0.3,0.6-0.5,0.9-0.6c0.4-0.1,0.6-0.3,0.9-0.4c0.3,0,0.6-0.1,0.9-0.1c0.6,0,1.3,0.1,1.9,0.3
	c0.6,0.3,1.1,0.5,1.6,1c0.5,0.4,0.9,1,1.1,1.8c0.3,0.8,0.4,1.5,0.4,2.6v1.4H219z M238.4,115.8c0,0.6,0,1.3-0.1,1.9
	c-0.1,0.6-0.1,1.3-0.4,1.8c-0.1,0.6-0.4,1.1-0.6,1.6c-0.3,0.5-0.6,1-1,1.4c-0.4,0.4-0.9,0.8-1.4,0.9c-0.5,0.3-1.1,0.4-1.9,0.4v-2.5
	c0.5,0,0.9-0.1,1.3-0.5c0.4-0.3,0.6-0.6,0.8-1.1c0.3-0.5,0.4-1,0.4-1.6c0.1-0.6,0.1-1.3,0.1-1.9v-3.3c0-0.4,0-0.8,0-1.1
	c0-0.4,0-0.8-0.1-1.1c0-0.4-0.1-0.6-0.1-1c-0.1-0.3-0.3-0.6-0.4-0.8c-0.1-0.3-0.4-0.4-0.5-0.5c-0.3-0.1-0.5-0.3-0.8-0.3
	c-0.5,0-0.9,0.1-1.1,0.3c-0.3,0.1-0.5,0.4-0.6,0.5c-0.1,0.3-0.3,0.5-0.3,0.8c0,0.3,0,0.6,0,0.9v6.5c0,0.5,0,1.1-0.1,1.6
	c-0.1,0.5-0.3,1.1-0.4,1.6c-0.1,0.5-0.4,1-0.6,1.4c-0.3,0.4-0.6,0.8-1,1.1c-0.4,0.4-0.8,0.6-1.3,0.8c-0.5,0.1-1,0.3-1.8,0.3
	c-0.6,0-1.3-0.1-1.8-0.3c-0.5-0.3-1-0.5-1.4-0.8c-0.4-0.4-0.6-0.8-0.9-1.1c-0.3-0.5-0.5-0.9-0.6-1.5c-0.1-0.5-0.3-1.1-0.4-1.6
	c0-0.6-0.1-1.1-0.1-1.8V112c0-0.5,0-1,0.1-1.6c0-0.5,0.1-1,0.4-1.5c0.1-0.5,0.4-0.9,0.6-1.4c0.3-0.4,0.5-0.8,0.9-1.1
	c0.4-0.4,0.9-0.6,1.4-0.8c0.5-0.1,1.1-0.3,1.8-0.4c0.3,0,0.6,0,0.9,0.1c0.4,0,0.6,0.1,1,0.3s0.6,0.3,1,0.5c0.3,0.3,0.6,0.5,0.9,0.9
	c0.3-0.4,0.4-0.6,0.6-0.9c0.3-0.3,0.5-0.4,0.8-0.5c0.3-0.1,0.6-0.1,0.9-0.3c0.4,0,0.6,0,1,0c0.8,0,1.3,0.1,1.9,0.3
	c0.5,0.3,0.9,0.5,1.3,0.8c0.4,0.4,0.6,0.8,0.9,1.3c0.3,0.5,0.4,1,0.5,1.5c0.1,0.5,0.3,1,0.3,1.6c0,0.5,0,1.1,0,1.6v3.4H238.4z
	 M228.9,110.3c0-0.3,0-0.6-0.1-0.9c-0.1-0.3-0.3-0.5-0.4-0.8c-0.1-0.3-0.4-0.4-0.8-0.5c-0.3-0.1-0.6-0.3-1.1-0.3
	c-0.5,0-0.9,0.1-1.1,0.4c-0.3,0.3-0.5,0.6-0.8,1c-0.1,0.4-0.3,0.9-0.4,1.5c0,0.5-0.1,1.1-0.1,1.6v4c0,0.8,0,1.5,0.1,2
	c0.1,0.6,0.3,1.1,0.4,1.5c0.1,0.4,0.4,0.6,0.8,0.9c0.3,0.3,0.6,0.3,1.1,0.3c0.4,0,0.8-0.1,1.1-0.3c0.3-0.3,0.5-0.5,0.8-0.9
	c0.1-0.4,0.3-0.8,0.4-1.3c0.1-0.5,0.1-1.1,0.1-1.8V110.3z M251.2,119.2c0,0.6-0.1,1.1-0.4,1.8c-0.3,0.5-0.5,1-1,1.5
	c-0.4,0.4-1,0.8-1.6,1c-0.6,0.3-1.4,0.4-2.3,0.4c-0.9,0-1.6-0.1-2.3-0.4c-0.6-0.3-1.3-0.6-1.6-1s-0.8-0.9-1-1.4
	c-0.3-0.5-0.4-1.1-0.4-1.6v-0.9c0-0.3,0-0.5,0.1-0.8c0-0.3,0.1-0.5,0.3-0.9c0.1-0.3,0.3-0.5,0.5-0.8c0.1-0.3,0.4-0.5,0.6-0.8l2.3,1
	c-0.4,0.4-0.6,0.9-0.8,1.1c-0.1,0.4-0.1,0.8-0.1,1v0.6c0,0.3,0,0.5,0.1,0.8c0.1,0.3,0.3,0.5,0.5,0.6c0.3,0.3,0.5,0.4,0.8,0.5
	c0.3,0.1,0.6,0.1,1.1,0.1c0.9,0,1.4-0.1,1.9-0.5c0.4-0.4,0.6-0.9,0.6-1.5v-1.9c0-0.3,0-0.4,0-0.6c0-0.3-0.1-0.5-0.3-0.8
	c-0.1-0.3-0.3-0.4-0.4-0.5c-0.1-0.1-0.4-0.3-0.5-0.3h-1.6v-2.6h1.6c0.3,0,0.4-0.1,0.5-0.3c0.1-0.1,0.3-0.4,0.4-0.6
	c0.1-0.3,0.1-0.5,0.1-0.8c0-0.3,0-0.5,0-0.8v-0.5c0-0.3,0-0.4-0.1-0.6c-0.1-0.3-0.3-0.4-0.4-0.6c-0.1-0.1-0.4-0.3-0.6-0.4
	c-0.3-0.1-0.6-0.1-1-0.1c-0.4,0-0.6,0-0.9,0.1c-0.3,0.1-0.5,0.3-0.6,0.4c-0.1,0.1-0.4,0.3-0.4,0.5c-0.1,0.1-0.1,0.4-0.1,0.5v0.4
	c0,0.1,0,0.4,0,0.4c0,0.1,0,0.3,0,0.4s0.1,0.3,0.1,0.4c0,0.1,0.1,0.3,0.3,0.4l-2,1.1c-0.3-0.3-0.4-0.5-0.5-0.8
	c-0.1-0.3-0.3-0.4-0.4-0.6c-0.1-0.1-0.1-0.4-0.3-0.6c0-0.3,0-0.4,0-0.6v-0.5c0-0.5,0.1-0.9,0.4-1.4c0.3-0.5,0.6-0.9,1-1.3
	c0.4-0.4,1-0.8,1.5-0.9c0.6-0.3,1.3-0.4,2-0.4c0.9,0,1.5,0.1,2.1,0.4c0.6,0.3,1.1,0.6,1.5,1c0.4,0.4,0.8,0.9,0.9,1.4
	c0.3,0.5,0.3,1,0.3,1.6v0.8c0,0.3,0,0.4,0,0.8c0,0.3,0,0.6-0.1,0.9c-0.1,0.4-0.3,0.6-0.4,1c-0.3,0.4-0.5,0.6-0.9,1
	c0.4,0.3,0.8,0.6,0.9,0.9c0.3,0.3,0.4,0.6,0.5,0.9c0.1,0.3,0.1,0.6,0.1,0.9s0,0.5,0,0.8v1.6H251.2z M264.1,119.2
	c0,0.8-0.1,1.5-0.4,2c-0.3,0.5-0.6,1-1.1,1.4c-0.5,0.4-1,0.6-1.6,0.8c-0.6,0.1-1.3,0.3-2,0.3s-1.5-0.1-2.1-0.4
	c-0.6-0.3-1.1-0.6-1.6-1c-0.5-0.4-0.9-0.9-1.1-1.5c-0.3-0.6-0.4-1.3-0.4-1.9c0-0.5,0-0.9,0.1-1.3c0-0.4,0.1-0.6,0.3-1
	c0.1-0.3,0.3-0.6,0.5-0.9c0.1-0.3,0.4-0.5,0.8-0.9l2.1,0.9c-0.1,0.3-0.3,0.4-0.4,0.6c-0.1,0.3-0.1,0.5-0.3,0.6
	c0,0.3-0.1,0.5-0.1,0.8c0,0.3,0,0.6,0,1c0,0.6,0.3,1.3,0.6,1.5c0.4,0.4,1,0.5,1.9,0.5c0.8,0,1.4-0.1,1.8-0.5s0.6-0.9,0.6-1.4v-9.5
	c0-0.5-0.1-0.9-0.5-1.3c-0.4-0.4-0.9-0.5-1.5-0.5s-1.1,0.1-1.5,0.5c-0.4,0.4-0.6,0.8-0.6,1.3c0,0.3,0,0.4,0,0.6s0.1,0.5,0.3,0.8
	l-2.1,0.8c-0.1-0.3-0.3-0.4-0.4-0.5c-0.1-0.1-0.1-0.3-0.3-0.5c0-0.1-0.1-0.4-0.1-0.5c0-0.1,0-0.4,0-0.6c0-0.6,0.1-1.3,0.4-1.8
	c0.3-0.5,0.5-1,1-1.4c0.4-0.4,0.9-0.6,1.5-0.9s1.3-0.4,1.9-0.4c0.8,0,1.4,0.1,2,0.3c0.6,0.1,1.1,0.5,1.5,0.9c0.5,0.4,0.8,0.9,1,1.4
	s0.4,1.1,0.4,1.9v9.9H264.1z M288.5,112.4c0,0.4,0,0.8-0.1,1.1c-0.1,0.4-0.3,0.9-0.4,1.3c-0.1,0.5-0.4,0.9-0.6,1.4
	c-0.3,0.5-0.5,0.9-0.9,1.3c-0.3,0.4-0.6,0.8-1,1.1c-0.4,0.4-0.8,0.6-1.1,0.9l-1.9-1.8c0.5-0.4,0.9-0.8,1.4-1.3c0.4-0.5,0.8-1,1-1.5
	c0.3-0.5,0.5-1,0.6-1.5c0.1-0.5,0.3-0.9,0.3-1.3v-1.4c0-0.5,0-0.9-0.1-1.3c-0.1-0.4-0.3-0.6-0.4-0.9c-0.1-0.3-0.4-0.4-0.6-0.5
	c-0.3-0.1-0.5-0.1-0.8-0.1c-0.4,0-0.8,0.1-1,0.3c-0.3,0.1-0.5,0.3-0.6,0.5c-0.1,0.3-0.3,0.5-0.3,0.8c0,0.3-0.1,0.6-0.1,1v3.4h-2.6
	v-3.4c0-0.4,0-0.6-0.1-1c0-0.4-0.1-0.6-0.3-0.9c-0.1-0.3-0.3-0.4-0.5-0.6c-0.3-0.1-0.5-0.3-0.9-0.3c-0.4,0-0.6,0.1-0.8,0.3
	c-0.3,0.1-0.4,0.4-0.5,0.6c-0.1,0.3-0.3,0.5-0.3,0.9c0,0.3-0.1,0.6-0.1,0.9v3.4h-2.8v-3.3c0-0.4,0-0.6,0-0.9c0-0.3-0.1-0.5-0.3-0.8
	c-0.1-0.3-0.3-0.4-0.5-0.5s-0.6-0.3-1-0.3s-0.6,0.1-0.9,0.3s-0.4,0.4-0.6,0.6c-0.1,0.3-0.3,0.6-0.4,1s-0.1,0.8-0.1,1.3v1.5
	c0,0.8,0.1,1.5,0.4,2.3c0.3,0.8,0.6,1.4,1.1,1.9c0.5,0.6,1.1,1.1,1.8,1.5c0.8,0.5,1.5,0.9,2.3,1.1c0.9,0.4,1.8,0.6,2.8,0.8
	s2,0.3,3,0.3h2.3v2.8h-2.1c-1.5,0-3-0.1-4.3-0.4s-2.5-0.6-3.5-1.1s-2-1.1-2.8-1.8s-1.5-1.4-2-2.3c-0.5-0.8-1-1.6-1.3-2.5
	c-0.3-0.9-0.4-1.8-0.5-2.6V111c0-0.8,0.1-1.6,0.3-2.3c0.1-0.8,0.5-1.3,0.9-1.9c0.4-0.5,0.9-0.9,1.5-1.3c0.6-0.3,1.3-0.5,2.1-0.5
	c0.4,0,0.6,0,1,0.1c0.3,0.1,0.6,0.3,0.9,0.4c0.3,0.1,0.5,0.4,0.8,0.6c0.3,0.3,0.5,0.5,0.8,0.9c0.4-0.6,0.8-1.1,1.3-1.5
	c0.5-0.4,1-0.5,1.8-0.5c0.6,0,1.3,0.1,1.8,0.5s0.9,0.9,1.4,1.5c0.5-0.6,1-1.1,1.5-1.5c0.5-0.4,1.1-0.5,1.8-0.5s1.3,0.1,1.9,0.4
	c0.6,0.3,1,0.6,1.5,1c0.4,0.5,0.8,1,1,1.6s0.4,1.4,0.4,2.3v2H288.5z M305.1,112.7c0-0.6,0-1.3,0-1.9s-0.1-1.1-0.3-1.5
	c-0.1-0.4-0.4-0.8-0.6-1c-0.3-0.3-0.6-0.4-1.3-0.4c-1.5,0-2.1,0.9-2.1,2.8v7.2h-2.8v-7.2c0-1-0.1-1.6-0.5-2
	c-0.4-0.4-0.9-0.6-1.6-0.6c-0.5,0-0.9,0.1-1.1,0.4c-0.3,0.3-0.5,0.6-0.6,1c-0.1,0.4-0.3,0.9-0.3,1.5s-0.1,1.3-0.1,1.9v2.9
	c0,0.6,0,1.3,0.1,2c0.1,0.6,0.3,1.3,0.5,1.8s0.5,0.9,0.9,1.3s0.9,0.5,1.4,0.5v2.5c-0.8,0-1.5-0.1-2-0.4c-0.6-0.3-1.1-0.5-1.5-0.9
	c-0.4-0.4-0.8-0.9-1.1-1.4c-0.3-0.5-0.5-1.1-0.8-1.6c-0.1-0.6-0.3-1.3-0.4-1.9c-0.1-0.6-0.1-1.3-0.1-1.9v-3c0-0.6,0-1.3,0.1-1.9
	c0-0.6,0.1-1.1,0.3-1.8c0.1-0.5,0.3-1,0.5-1.5c0.3-0.5,0.5-0.9,0.9-1.3s0.9-0.6,1.4-0.8c0.5-0.3,1.1-0.3,1.9-0.3
	c0.4,0,0.8,0,1.1,0.1c0.4,0.1,0.6,0.3,1,0.5c0.3,0.3,0.5,0.4,0.8,0.6s0.4,0.5,0.6,0.8c0.1-0.3,0.4-0.5,0.6-0.8s0.5-0.5,0.8-0.6
	c0.3-0.3,0.6-0.4,1-0.5c0.4-0.1,0.8-0.1,1.3-0.1c0.8,0,1.3,0.1,1.9,0.3c0.5,0.3,1,0.5,1.4,0.8c0.4,0.4,0.6,0.8,0.9,1.3
	c0.3,0.5,0.4,1,0.5,1.5c0.1,0.5,0.3,1.1,0.3,1.6c0,0.6,0.1,1.1,0.1,1.8v3.1c0,0.6,0,1.1-0.1,1.8s-0.3,1.3-0.4,1.8
	c-0.1,0.6-0.4,1.1-0.8,1.6c-0.3,0.5-0.6,1-1.1,1.4c-0.4,0.4-0.9,0.8-1.5,1c-0.6,0.3-1.3,0.4-2,0.4v-2.5c0.5,0,1-0.1,1.3-0.5
	c0.4-0.4,0.6-0.8,0.9-1.3c0.3-0.5,0.4-1.1,0.5-1.8s0.1-1.4,0.1-2v-2.8H305.1z M169.3,44.5c0,1.5-0.3,3-0.8,4.4s-1.3,2.5-2.1,3.4
	c-0.9,1-2,1.8-3.3,2.3c-1.3,0.5-2.6,0.9-4,0.9c-1.5,0-2.9-0.3-4.1-0.6c-1.3-0.5-2.3-1.1-3.1-2c-0.9-0.9-1.6-2.1-2.1-3.5
	c-0.5-1.4-0.8-3-0.8-4.9V20.3h5.4v24c0,1.1,0.1,2.1,0.4,2.9c0.3,0.8,0.5,1.4,1,1.9c0.4,0.5,0.9,0.9,1.5,1.1c0.6,0.3,1.3,0.4,1.9,0.4
	c0.8,0,1.5-0.1,2-0.5c0.6-0.3,1.1-0.8,1.5-1.3s0.8-1.3,0.9-2c0.3-0.8,0.3-1.6,0.3-2.5V43c0-1-0.1-2-0.5-2.9
	c-0.4-0.9-0.9-1.8-1.5-2.5c-0.4-0.4-0.6-0.9-1-1.3c-0.3-0.4-0.6-0.9-0.8-1.3c-0.3-0.4-0.4-0.9-0.6-1.3c-0.1-0.4-0.3-0.9-0.3-1.4
	c0-0.4,0-0.8,0.1-1.1c0-0.4,0.1-0.8,0.3-1.1c0.1-0.4,0.4-0.8,0.5-1.3c0.3-0.5,0.5-0.9,0.9-1.5l5.6,1.5c-0.1,0.1-0.3,0.4-0.4,0.5
	c-0.1,0.1-0.3,0.4-0.4,0.5c-0.1,0.1-0.3,0.3-0.4,0.4c-0.1,0.1-0.1,0.3-0.1,0.3c-0.3,0.4-0.5,0.6-0.6,0.9c-0.1,0.3-0.3,0.5-0.3,0.9
	c0,0.5,0.3,1,0.6,1.6s0.9,1.1,1.5,1.8l0,0c0.8,0.9,1.5,1.9,2,3s0.8,2.4,0.8,3.8L169.3,44.5L169.3,44.5z M193.7,44.8
	c0,7.2-3.4,10.7-10.1,10.7c-1.6,0-3.1-0.3-4.4-0.9c-1.3-0.5-2.3-1.3-3.1-2.3c-0.9-1-1.5-2-1.9-3.3c-0.4-1.3-0.6-2.5-0.6-4v-1.5
	c0-0.5,0.1-1,0.3-1.6c0.1-0.5,0.4-1.1,0.6-1.8c0.3-0.6,0.6-1.1,1-1.8c0.4-0.6,0.8-1.3,1.3-1.9l4.1,2c-0.6,1.1-1,2.1-1.4,2.9
	c-0.3,0.9-0.5,1.5-0.5,1.9v2c0,0.9,0.1,1.6,0.3,2.3c0.1,0.6,0.4,1.3,0.8,1.6c0.4,0.5,0.9,0.8,1.5,1c0.6,0.3,1.4,0.4,2.3,0.4
	c0.8,0,1.5-0.1,2.1-0.3c0.6-0.3,1.1-0.5,1.5-1c0.4-0.5,0.6-1.1,0.9-1.8c0.1-0.8,0.3-1.6,0.3-2.8v-2.4c0-0.9-0.1-1.8-0.4-2.5
	c-0.3-0.8-0.6-1.5-1-2.1c-0.4-0.6-0.9-1.3-1.5-1.9c-0.5-0.6-1.1-1.3-1.6-1.8c-0.6-0.6-1.3-1.4-1.9-2c-0.6-0.6-1.1-1.4-1.6-2.1
	c-0.5-0.8-0.9-1.6-1.1-2.5c-0.3-0.9-0.4-1.9-0.4-3v-3.8h5.3v3.8c0,0.6,0.1,1.3,0.4,1.9c0.3,0.6,0.5,1.1,0.9,1.8
	c0.4,0.5,0.9,1.1,1.3,1.6c0.5,0.5,1,1.1,1.5,1.6l0,0c0.8,0.8,1.4,1.5,2.1,2.3c0.6,0.8,1.3,1.6,1.9,2.5c0.5,0.9,1,1.9,1.4,3
	s0.5,2.3,0.5,3.5v2.1H193.7z M218.1,46.9c0,1.5-0.3,2.8-0.9,3.9c-0.5,1.1-1.3,2-2.3,2.6c-0.9,0.8-2,1.3-3.3,1.5
	c-1.3,0.4-2.5,0.5-3.8,0.5c-1.5,0-2.9-0.3-4-0.6c-1.3-0.5-2.3-1.1-3.3-1.9c-0.9-0.8-1.6-1.8-2.1-2.9c-0.5-1.1-0.8-2.3-0.8-3.5
	c0-0.9,0-1.8,0.1-2.4c0.1-0.6,0.3-1.3,0.5-1.9s0.5-1.1,0.9-1.6c0.4-0.5,0.8-1,1.4-1.6l4,1.6c-0.4,0.4-0.6,0.9-0.8,1.3
	c-0.1,0.4-0.4,0.9-0.4,1.3c-0.1,0.5-0.1,1-0.1,1.5s0,1.3,0,1.9c0,1.3,0.4,2.3,1.1,3c0.8,0.8,2,1,3.5,1c1.4,0,2.6-0.4,3.4-1
	c0.9-0.6,1.3-1.6,1.3-2.8V28.6c0-1-0.4-1.8-1-2.4c-0.8-0.6-1.6-0.9-2.9-0.9s-2.3,0.3-3,0.9c-0.8,0.6-1.1,1.4-1.1,2.5
	c0,0.4,0,0.8,0,1.1c0,0.4,0.1,0.9,0.4,1.5l-4.3,1.5c-0.3-0.4-0.5-0.8-0.6-1c-0.1-0.3-0.4-0.6-0.5-0.9c-0.1-0.3-0.3-0.6-0.3-1
	c0-0.4-0.1-0.8-0.1-1.3c0-1.3,0.3-2.4,0.6-3.4c0.4-1,1-1.9,1.9-2.6c0.8-0.8,1.8-1.3,2.9-1.6c1.1-0.4,2.4-0.6,3.8-0.6
	c1.4,0,2.6,0.1,3.8,0.5c1.1,0.4,2.1,0.9,3,1.6c0.9,0.8,1.5,1.5,2,2.6c0.5,1,0.8,2.3,0.8,3.5v18.2H218.1z M256.5,44
	c0,0.8-0.1,1.5-0.4,2.3c-0.3,0.9-0.6,1.6-1.1,2.5c-0.5,0.9-1,1.6-1.8,2.5c-0.6,0.8-1.4,1.5-2.3,2.1c-0.9,0.6-1.8,1.1-2.8,1.5
	c-1,0.4-2,0.5-3.1,0.5v-4.9c0.8,0,1.6-0.3,2.3-0.6c0.8-0.4,1.4-1,1.9-1.6c0.5-0.6,1-1.4,1.3-2.1c0.3-0.8,0.5-1.5,0.5-2.1v-3.3
	c0-1.3-0.1-2.1-0.4-2.9c-0.3-0.8-0.6-1.4-1.1-1.8c-0.4-0.4-0.9-0.8-1.4-0.9c-0.5-0.1-0.9-0.3-1.4-0.3c-0.5,0-0.9,0.1-1.4,0.3
	s-1,0.5-1.4,0.9s-0.8,1-1,1.6c-0.3,0.6-0.4,1.5-0.4,2.5v6h-5.5v-6c0-1-0.1-1.9-0.4-2.5c-0.3-0.6-0.6-1.3-1-1.6s-0.9-0.8-1.4-0.9
	c-0.5-0.1-1-0.3-1.4-0.3c-0.5,0-1,0.1-1.5,0.3c-0.5,0.1-1,0.5-1.4,0.9c-0.4,0.4-0.8,1-1,1.8c-0.3,0.8-0.4,1.8-0.4,2.9v3.4
	c0,0.6,0.1,1.3,0.4,2c0.3,0.8,0.6,1.4,1.1,2.1c0.5,0.6,1.1,1.1,1.9,1.6c0.8,0.4,1.5,0.6,2.5,0.6v4.9c-1.3,0-2.4-0.3-3.4-0.6
	s-2-0.9-2.9-1.5s-1.6-1.4-2.3-2.1s-1.1-1.6-1.6-2.5c-0.4-0.9-0.8-1.8-1-2.5c-0.3-0.9-0.4-1.6-0.4-2.3v-3.1c0-1.6,0.1-3.3,0.4-5
	c0.3-1.6,0.8-3.3,1.5-4.8c0.8-1.5,1.8-2.9,2.9-4.3c1.3-1.3,2.8-2.4,4.6-3.4c1.9-1,4.1-1.8,6.6-2.3c2.6-0.5,5.6-0.9,9-0.9v4.9
	c-4.3,0-7.8,0.5-10.6,1.4s-5,2.3-6.5,3.9l1.5-0.4c0.6,0,1.3,0,2,0.1c0.6,0.1,1.3,0.3,1.9,0.6c0.6,0.3,1.3,0.6,1.8,1.1
	c0.5,0.5,1,1.1,1.5,1.9c0.5-0.8,1-1.4,1.6-1.9c0.6-0.5,1.1-0.9,1.8-1.1c0.6-0.3,1.3-0.5,1.8-0.6c0.6-0.1,1.1-0.1,1.8-0.1
	c1.3,0,2.4,0.1,3.6,0.5c1.1,0.4,2.3,1,3.1,1.8c0.9,0.9,1.6,1.9,2.1,3.3c0.5,1.4,0.9,3,0.9,4.9V44H256.5z M294.1,40.4
	c0,1.1-0.1,2.3-0.3,3.5c-0.1,1.1-0.4,2.4-0.6,3.5c-0.3,1.1-0.8,2.1-1.3,3.1c-0.5,1-1.1,1.9-1.9,2.6c-0.8,0.8-1.6,1.4-2.8,1.8
	c-1,0.4-2.3,0.6-3.6,0.6v-4.9c1,0,1.8-0.3,2.4-0.9s1.1-1.3,1.5-2.3c0.4-0.9,0.6-2,0.8-3.1c0.1-1.1,0.3-2.4,0.3-3.6v-6.1
	c0-0.8,0-1.5,0-2.1c0-0.8-0.1-1.4-0.1-2.1c-0.1-0.6-0.3-1.3-0.4-1.9c-0.1-0.6-0.4-1.1-0.6-1.5c-0.3-0.4-0.6-0.8-1-1
	c-0.4-0.3-0.9-0.4-1.5-0.4c-1,0-1.6,0.1-2.1,0.4c-0.5,0.3-0.9,0.6-1.1,1c-0.3,0.4-0.4,0.9-0.4,1.5c0,0.5-0.1,1.1-0.1,1.6v12.5
	c0,1-0.1,2.1-0.3,3.1s-0.4,2-0.8,3c-0.4,1-0.8,1.9-1.3,2.6c-0.5,0.9-1.1,1.5-1.9,2.1c-0.8,0.6-1.6,1.1-2.5,1.5
	c-1,0.4-2.1,0.5-3.3,0.5c-1.4,0-2.5-0.1-3.5-0.5s-1.9-0.9-2.6-1.5c-0.8-0.6-1.4-1.4-1.9-2.3c-0.5-0.9-0.9-1.8-1.1-2.8
	s-0.5-2-0.6-3.1c-0.1-1.1-0.1-2.3-0.1-3.4v-8.8c0-1,0-2,0.1-3c0.1-1,0.4-2,0.6-2.9c0.3-0.9,0.6-1.8,1.1-2.6c0.5-0.8,1.1-1.5,1.8-2.1
	c0.8-0.6,1.6-1.1,2.6-1.4c1-0.4,2.1-0.5,3.5-0.6c0.6,0,1.1,0,1.9,0.1c0.6,0.1,1.3,0.3,2,0.5c0.6,0.3,1.3,0.5,1.9,1
	c0.6,0.4,1.1,0.9,1.6,1.5c0.4-0.8,0.9-1.3,1.3-1.6c0.5-0.4,1-0.8,1.5-1c0.5-0.3,1.1-0.4,1.8-0.4s1.3-0.1,2-0.1
	c1.4,0,2.5,0.3,3.5,0.6c1,0.4,1.9,0.9,2.5,1.5c0.6,0.6,1.3,1.4,1.6,2.3c0.4,0.9,0.8,1.8,1,2.8c0.3,1,0.4,2,0.5,3s0.1,2.1,0.1,3.1
	v6.5H294.1z M275.8,29.9c0-0.5-0.1-1.1-0.3-1.6s-0.4-1-0.8-1.5c-0.4-0.4-0.8-0.8-1.4-1c-0.6-0.3-1.3-0.4-2.1-0.4
	c-0.9,0-1.8,0.3-2.3,0.8c-0.6,0.5-1,1.1-1.4,2s-0.5,1.8-0.6,2.8c-0.1,1-0.1,2-0.1,3v7.7c0,1.5,0.1,2.8,0.3,3.9
	c0.1,1.1,0.4,2,0.8,2.8s0.8,1.3,1.4,1.6c0.6,0.4,1.3,0.6,2.1,0.6s1.5-0.1,2.1-0.5c0.6-0.4,1-0.9,1.4-1.6c0.4-0.6,0.6-1.5,0.8-2.5
	c0.1-1,0.3-2.1,0.3-3.4V29.9H275.8z M319.3,44.8c0,7.2-3.4,10.7-10.1,10.7c-1.6,0-3.1-0.3-4.4-0.9c-1.3-0.5-2.3-1.3-3.1-2.3
	s-1.5-2-1.9-3.3c-0.4-1.3-0.6-2.5-0.6-4v-1.5c0-0.5,0.1-1,0.3-1.6c0.1-0.5,0.4-1.1,0.6-1.8s0.6-1.1,1-1.8s0.8-1.3,1.3-1.9l4.1,2
	c-0.6,1.1-1,2.1-1.4,2.9c-0.4,0.8-0.5,1.5-0.5,1.9v2c0,0.9,0.1,1.6,0.3,2.3c0.1,0.6,0.4,1.3,0.8,1.6c0.4,0.5,0.9,0.8,1.5,1
	c0.6,0.3,1.4,0.4,2.3,0.4c0.8,0,1.5-0.1,2.1-0.3c0.6-0.3,1.1-0.5,1.5-1c0.4-0.5,0.6-1.1,0.9-1.8c0.1-0.8,0.3-1.6,0.3-2.8v-2.4
	c0-0.9-0.1-1.8-0.4-2.5s-0.6-1.5-1-2.1s-0.9-1.3-1.5-1.9c-0.5-0.6-1.1-1.3-1.6-1.8c-0.6-0.6-1.3-1.4-1.9-2c-0.6-0.6-1.1-1.4-1.6-2.1
	s-0.9-1.6-1.1-2.5c-0.3-0.9-0.4-1.9-0.4-3v-3.8h5.3v3.8c0,0.6,0.1,1.3,0.4,1.9c0.3,0.6,0.5,1.1,0.9,1.8c0.4,0.5,0.9,1.1,1.3,1.6
	c0.5,0.5,1,1.1,1.5,1.6l0,0c0.8,0.8,1.4,1.5,2.1,2.3c0.6,0.8,1.3,1.6,1.9,2.5c0.5,0.9,1,1.9,1.4,3c0.4,1.1,0.5,2.3,0.5,3.5v2.1
	H319.3z M346.3,45.2c0,1.5-0.3,3-0.9,4.3c-0.6,1.3-1.4,2.4-2.4,3.3c-1,0.9-2.1,1.6-3.4,2.1s-2.6,0.8-4,0.8s-2.8-0.3-4.1-0.9
	c-1.3-0.6-2.4-1.4-3.4-2.4c-1-1-1.8-2.1-2.3-3.4c-0.5-1.3-0.9-2.5-0.9-3.9v-2.9c0-1.4,0.3-2.8,0.8-4c0.5-1.3,1.3-2.4,2.1-3.4
	c0.9-1,2-1.8,3.4-2.3c1.3-0.6,2.8-0.9,4.4-0.9c0.4,0,0.8,0,1.3,0.1c0.4,0,0.9,0.1,1.4,0.3c0.5,0.1,0.9,0.3,1.4,0.4
	c0.5,0.1,0.9,0.4,1.4,0.8v-3.6c0-0.8,0-1.4,0-1.9s-0.1-0.9-0.3-1.3c-0.1-0.3-0.4-0.5-0.8-0.6c-0.4-0.1-0.8-0.3-1.4-0.3
	c-0.8,0-1.4,0.3-1.9,0.6s-0.8,1-0.8,1.8V29h-3.9v-1.6c0-0.4-0.1-0.8-0.3-1c-0.3-0.3-0.5-0.5-0.8-0.8c-0.3-0.3-0.6-0.4-1-0.4
	c-0.4-0.1-0.8-0.1-1-0.1c-0.3,0-0.5,0-0.6,0.1c-0.1,0.1-0.4,0.3-0.4,0.4c-0.1,0.1-0.1,0.3-0.3,0.4c0,0.1,0,0.3,0,0.4v3.9H323v-3.8
	c0-0.9,0.1-1.6,0.5-2.4c0.3-0.8,0.8-1.4,1.3-1.9s1.1-1,1.9-1.3s1.5-0.5,2.4-0.5c0.6,0,1.3,0.1,1.8,0.3c0.5,0.1,1,0.4,1.4,0.6
	c0.4,0.3,0.8,0.6,1.1,1c0.4,0.4,0.6,0.8,1,1.1c0.4-0.4,0.6-0.8,1-1.1c0.4-0.4,0.8-0.6,1.1-1c0.4-0.3,0.9-0.5,1.3-0.6
	c0.5-0.1,1-0.3,1.5-0.3c1.4,0,2.5,0.1,3.5,0.5c0.9,0.4,1.6,0.9,2.3,1.5c0.6,0.8,1,1.6,1.3,2.6c0.3,1.1,0.4,2.4,0.4,3.8v16.3H346.3z
	 M340.9,41.7c0-2-0.4-3.4-1.3-4.1c-0.9-0.9-2.1-1.3-3.8-1.3c-0.8,0-1.4,0.1-2,0.5c-0.6,0.4-1.1,0.8-1.6,1.4
	c-0.5,0.5-0.9,1.3-1.1,1.9c-0.3,0.8-0.4,1.5-0.4,2.4v2.4c0,0.8,0.1,1.5,0.4,2.3c0.3,0.8,0.6,1.4,1,1.9c0.5,0.5,1,1,1.6,1.3
	c0.6,0.4,1.4,0.5,2.1,0.5c0.6,0,1.4-0.1,2-0.4c0.6-0.3,1.1-0.6,1.6-1.1c0.5-0.5,0.9-1,1.1-1.8c0.3-0.6,0.4-1.4,0.4-2.1v-3.6H340.9z
	 M379.4,34.2c0-1.3,0-2.5-0.1-3.6c-0.1-1.1-0.3-2-0.5-2.9c-0.3-0.8-0.8-1.4-1.3-1.9s-1.4-0.6-2.4-0.6c-2.9,0-4.3,1.8-4.3,5.1V44
	h-5.4V30.5c0-1.8-0.4-3.1-1-3.9c-0.8-0.8-1.8-1.3-3.3-1.3c-0.9,0-1.6,0.3-2.3,0.6c-0.5,0.5-1,1.1-1.3,1.9c-0.3,0.8-0.5,1.8-0.6,2.9
	c-0.1,1.1-0.1,2.4-0.1,3.6V40c0,1.3,0.1,2.5,0.4,3.8c0.3,1.3,0.5,2.4,1,3.4s1.1,1.8,1.9,2.4s1.6,0.9,2.8,0.9v4.9
	c-1.5,0-2.9-0.3-4-0.6c-1.1-0.4-2.1-1-3-1.8c-0.9-0.8-1.5-1.6-2.1-2.6c-0.5-1-1-2-1.4-3.1c-0.4-1.1-0.6-2.3-0.8-3.5
	c-0.1-1.3-0.3-2.4-0.3-3.5v-5.6c0-1.1,0-2.4,0.1-3.5s0.3-2.3,0.5-3.3c0.3-1,0.6-2,1-2.9c0.5-0.9,1-1.6,1.8-2.4
	c0.8-0.6,1.6-1.1,2.6-1.5c1-0.4,2.3-0.6,3.6-0.6c0.8,0,1.5,0.1,2.3,0.4c0.6,0.3,1.3,0.5,1.9,0.9c0.5,0.4,1,0.8,1.5,1.3
	c0.5,0.5,0.9,1,1.3,1.5c0.4-0.5,0.8-1,1.3-1.5c0.5-0.5,1-0.9,1.6-1.3c0.6-0.4,1.3-0.6,2-0.9c0.8-0.3,1.5-0.4,2.4-0.4
	c1.4,0,2.5,0.1,3.5,0.5c1,0.4,1.9,0.9,2.6,1.5c0.8,0.6,1.3,1.4,1.8,2.3c0.5,0.9,0.9,1.9,1.1,2.9c0.3,1,0.5,2.1,0.5,3.3
	c0.1,1.1,0.1,2.3,0.1,3.4v6c0,1.1-0.1,2.3-0.3,3.4s-0.4,2.4-0.8,3.5c-0.4,1.1-0.9,2.3-1.4,3.3c-0.6,1-1.3,1.9-2.1,2.6
	c-0.9,0.8-1.8,1.4-2.9,1.9c-1.1,0.5-2.4,0.6-3.8,0.6v-4.9c1,0,1.9-0.3,2.5-0.9c0.8-0.6,1.4-1.4,1.8-2.4c0.5-1,0.9-2.1,1.1-3.4
	c0.3-1.3,0.4-2.5,0.4-3.9v-5.8H379.4z M422.8,44c0,0.8-0.1,1.5-0.4,2.3c-0.3,0.9-0.6,1.6-1.1,2.5c-0.5,0.9-1,1.6-1.8,2.5
	c-0.6,0.8-1.4,1.5-2.3,2.1c-0.9,0.6-1.8,1.1-2.8,1.5c-1,0.4-2,0.5-3.1,0.5v-4.9c0.8,0,1.6-0.3,2.3-0.6c0.8-0.4,1.4-1,1.9-1.6
	c0.5-0.6,1-1.4,1.3-2.1c0.3-0.8,0.5-1.5,0.5-2.1v-3.3c0-1.3-0.1-2.1-0.4-2.9c-0.3-0.8-0.6-1.4-1.1-1.8c-0.4-0.4-0.9-0.8-1.4-0.9
	c-0.5-0.1-0.9-0.3-1.4-0.3s-0.9,0.1-1.4,0.3s-1,0.5-1.4,0.9s-0.8,1-1,1.6c-0.3,0.6-0.4,1.5-0.4,2.5v6h-5.5v-6c0-1-0.1-1.9-0.4-2.5
	c-0.3-0.6-0.6-1.3-1-1.6c-0.4-0.4-0.9-0.8-1.4-0.9c-0.5-0.1-1-0.3-1.4-0.3c-0.5,0-1,0.1-1.5,0.3c-0.5,0.1-1,0.5-1.4,0.9
	c-0.4,0.4-0.8,1-1,1.8c-0.3,0.8-0.4,1.8-0.4,2.9v3.4c0,0.6,0.1,1.3,0.4,2c0.3,0.8,0.6,1.4,1.1,2.1c0.5,0.6,1.1,1.1,1.9,1.6
	c0.8,0.4,1.5,0.6,2.5,0.6v4.9c-1.3,0-2.4-0.3-3.4-0.6c-1-0.4-2-0.9-2.9-1.5c-0.9-0.6-1.6-1.4-2.3-2.1s-1.1-1.6-1.6-2.5
	c-0.4-0.9-0.8-1.8-1-2.5c-0.3-0.9-0.4-1.6-0.4-2.3v-3.1c0-1.6,0.1-3.3,0.4-5c0.3-1.6,0.8-3.3,1.5-4.8c0.8-1.5,1.8-2.9,2.9-4.3
	c1.3-1.3,2.8-2.4,4.6-3.4c1.9-1,4.1-1.8,6.6-2.3c2.6-0.5,5.6-0.9,9-0.9v4.9c-4.3,0-7.8,0.5-10.6,1.4c-2.9,0.9-5,2.3-6.5,3.9l1.5-0.4
	c0.6,0,1.3,0,2,0.1c0.6,0.1,1.3,0.3,1.9,0.6c0.6,0.3,1.3,0.6,1.8,1.1c0.5,0.5,1,1.1,1.5,1.9c0.5-0.8,1-1.4,1.6-1.9
	c0.6-0.5,1.1-0.9,1.8-1.1c0.6-0.3,1.3-0.5,1.8-0.6c0.6-0.1,1.1-0.1,1.8-0.1c1.3,0,2.4,0.1,3.6,0.5c1.1,0.4,2.3,1,3.1,1.8
	c0.9,0.9,1.6,1.9,2.1,3.3c0.5,1.4,0.9,3,0.9,4.9V44H422.8z M448,41.4c0,1.5-0.1,3-0.4,4.6c-0.3,1.5-0.6,3-1.3,4.3
	c-0.6,1.4-1.4,2.5-2.5,3.4c-1,1-2.4,1.6-4.1,2l-0.5-5.1c1.1,0,1.9-0.8,2.4-2.4c0.5-1.6,0.9-3.8,0.9-6.6v-7.9c0-1.3-0.1-2.4-0.3-3.5
	c-0.1-1-0.4-1.9-0.8-2.6c-0.4-0.8-0.8-1.3-1.4-1.6c-0.6-0.4-1.4-0.5-2.3-0.5c-1,0-1.8,0.3-2.5,0.6c-0.6,0.4-1.1,0.9-1.5,1.6
	c-0.4,0.8-0.6,1.6-0.8,2.6c-0.1,1-0.3,2.3-0.3,3.5v7.8c0,1.4,0,2.6,0.1,3.8s0.3,2,0.4,2.9c0.1,0.8,0.4,1.4,0.8,1.8
	c0.4,0.4,0.8,0.6,1.1,0.6v5.1c-1.1-0.3-2.3-0.6-3-1.1c-0.9-0.5-1.5-1.1-2.1-1.9c-0.6-0.8-1-1.5-1.4-2.5c-0.4-0.9-0.6-1.9-0.8-2.8
	c-0.1-1-0.3-2-0.4-3c0-1-0.1-2-0.1-2.9v-7.8c0-1,0-2.1,0.1-3.1s0.3-2.1,0.6-3c0.3-1,0.6-1.9,1.1-2.8c0.5-0.9,1.1-1.6,1.9-2.3
	c0.8-0.6,1.6-1.1,2.8-1.5c1-0.4,2.3-0.6,3.6-0.6c2.1,0,3.9,0.4,5.1,1.1c1.4,0.8,2.4,1.6,3.1,2.9c0.8,1.3,1.3,2.6,1.5,4.1
	c0.3,1.6,0.4,3.3,0.4,5L448,41.4z M473.7,44.5c0,1.5-0.3,3-0.8,4.4c-0.5,1.4-1.3,2.5-2.1,3.4c-0.9,1-2,1.8-3.3,2.3
	c-1.3,0.5-2.6,0.9-4,0.9c-1.5,0-2.9-0.3-4.1-0.6c-1.3-0.5-2.3-1.1-3.1-2c-0.9-0.9-1.6-2.1-2.1-3.5c-0.5-1.4-0.8-3-0.8-4.9V20.3h5.4
	v24c0,1.1,0.1,2.1,0.4,2.9c0.3,0.8,0.5,1.4,1,1.9c0.4,0.5,0.9,0.9,1.5,1.1c0.6,0.3,1.3,0.4,1.9,0.4c0.8,0,1.5-0.1,2-0.5
	c0.6-0.3,1.1-0.8,1.5-1.3c0.4-0.5,0.8-1.3,0.9-2c0.3-0.8,0.3-1.6,0.3-2.5V43c0-1-0.1-2-0.5-2.9c-0.4-0.9-0.9-1.8-1.5-2.5
	c-0.4-0.4-0.6-0.9-1-1.3c-0.3-0.4-0.6-0.9-0.8-1.3c-0.3-0.4-0.4-0.9-0.6-1.3c-0.1-0.4-0.3-0.9-0.3-1.4c0-0.4,0-0.8,0.1-1.1
	c0-0.4,0.1-0.8,0.3-1.1c0.1-0.4,0.4-0.8,0.5-1.3c0.3-0.5,0.5-0.9,0.9-1.5L471,29c-0.1,0.1-0.3,0.4-0.4,0.5c-0.1,0.1-0.3,0.4-0.4,0.5
	c-0.1,0.1-0.3,0.3-0.4,0.4c-0.1,0.1-0.1,0.3-0.1,0.3c-0.3,0.4-0.5,0.6-0.6,0.9c-0.1,0.3-0.3,0.5-0.3,0.9c0,0.5,0.3,1,0.6,1.6
	c0.4,0.6,0.9,1.1,1.5,1.8l0,0c0.8,0.9,1.5,1.9,2,3s0.8,2.4,0.8,3.8L473.7,44.5L473.7,44.5z M506.1,34.2c0-1.3,0-2.5-0.1-3.6
	c-0.1-1.1-0.3-2-0.5-2.9c-0.3-0.8-0.8-1.4-1.3-1.9c-0.6-0.5-1.4-0.6-2.4-0.6c-2.9,0-4.3,1.8-4.3,5.1V44h-5.4V30.5
	c0-1.8-0.4-3.1-1-3.9c-0.8-0.8-1.8-1.3-3.3-1.3c-0.9,0-1.6,0.3-2.3,0.6c-0.5,0.5-1,1.1-1.3,1.9c-0.3,0.8-0.5,1.8-0.6,2.9
	c-0.1,1.1-0.1,2.4-0.1,3.6V40c0,1.3,0.1,2.5,0.4,3.8s0.5,2.4,1,3.4s1.1,1.8,1.9,2.4s1.6,0.9,2.8,0.9v4.9c-1.5,0-2.9-0.3-4-0.6
	c-1.1-0.4-2.1-1-3-1.8c-0.9-0.8-1.5-1.6-2.1-2.6c-0.5-1-1-2-1.4-3.1s-0.6-2.3-0.8-3.5c-0.1-1.3-0.3-2.4-0.3-3.5v-5.6
	c0-1.1,0-2.4,0.1-3.5s0.3-2.3,0.5-3.3c0.3-1,0.6-2,1-2.9c0.5-0.9,1-1.6,1.8-2.4c0.8-0.6,1.6-1.1,2.6-1.5s2.3-0.6,3.6-0.6
	c0.8,0,1.5,0.1,2.3,0.4c0.6,0.3,1.3,0.5,1.9,0.9c0.5,0.4,1,0.8,1.5,1.3c0.5,0.5,0.9,1,1.3,1.5c0.4-0.5,0.8-1,1.3-1.5
	c0.5-0.5,1-0.9,1.6-1.3c0.6-0.4,1.3-0.6,2-0.9s1.5-0.4,2.4-0.4c1.4,0,2.5,0.1,3.5,0.5c1,0.4,1.9,0.9,2.6,1.5
	c0.8,0.6,1.3,1.4,1.8,2.3s0.9,1.9,1.1,2.9c0.3,1,0.5,2.1,0.5,3.3c0.1,1.1,0.1,2.3,0.1,3.4v6c0,1.1-0.1,2.3-0.3,3.4s-0.4,2.4-0.8,3.5
	c-0.4,1.1-0.9,2.3-1.4,3.3c-0.6,1-1.3,1.9-2.1,2.6c-0.9,0.8-1.8,1.4-2.9,1.9s-2.4,0.6-3.8,0.6v-4.9c1,0,1.9-0.3,2.5-0.9
	c0.8-0.6,1.4-1.4,1.8-2.4c0.5-1,0.9-2.1,1.1-3.4c0.3-1.3,0.4-2.5,0.4-3.9v-5.8H506.1z M195.3,86.9c0,7.2-3.4,10.7-10,10.7
	c-1.6,0-3.1-0.3-4.4-0.9c-1.3-0.5-2.3-1.3-3.1-2.3c-0.9-1-1.5-2-1.9-3.3c-0.4-1.3-0.6-2.5-0.6-4v-1.5c0-0.5,0.1-1,0.3-1.6
	c0.1-0.5,0.4-1.1,0.6-1.8s0.6-1.1,1-1.8c0.4-0.6,0.8-1.3,1.3-1.9l4,2c-0.6,1.1-1,2.1-1.4,2.9c-0.3,0.9-0.5,1.5-0.5,1.9v1.6
	c0,0.9,0.1,1.6,0.3,2.3c0.1,0.6,0.4,1.3,0.8,1.6c0.4,0.5,0.9,0.8,1.4,1c0.6,0.3,1.3,0.4,2.1,0.4c0.8,0,1.5-0.1,2.1-0.3
	c0.6-0.3,1-0.5,1.4-1c0.4-0.5,0.6-1.1,0.9-1.8c0.1-0.8,0.3-1.6,0.3-2.8v-2.4c0-0.9-0.1-1.8-0.4-2.5c-0.3-0.8-0.6-1.5-1-2.1
	c-0.4-0.6-0.9-1.3-1.4-1.9c-0.5-0.6-1.1-1.3-1.6-1.8c-0.6-0.6-1.3-1.4-1.9-2s-1.1-1.4-1.6-2.1c-0.5-0.8-0.9-1.6-1.1-2.5
	c-0.3-0.9-0.4-1.9-0.4-3v-3.8h5.1v3.8c0,0.6,0.1,1.3,0.4,1.9c0.3,0.6,0.5,1.1,0.9,1.8c0.4,0.5,0.8,1.1,1.3,1.6
	c0.5,0.5,1,1.1,1.5,1.6l0,0c0.8,0.8,1.4,1.5,2,2.3c0.6,0.8,1.3,1.6,1.9,2.5c0.5,0.9,1,1.9,1.4,3c0.4,1.1,0.5,2.3,0.5,3.5v2.5H195.3z
	 M219.5,87.7c0,1.5-0.3,2.9-0.8,4.1c-0.5,1.3-1.1,2.3-2,3.1c-0.9,0.9-1.9,1.5-3.1,2c-1.3,0.5-2.5,0.6-4,0.6c-1.6,0-3.1-0.3-4.4-0.8
	s-2.3-1.3-3.1-2.1c-0.9-0.9-1.5-2-2-3.3c-0.5-1.3-0.6-2.6-0.6-4.1v-4.5c0-1.3,0.3-2.4,0.6-3.6c0.5-1.3,1.1-2.4,2-3.4
	c0.9-1,1.9-1.8,3.1-2.4s2.8-1,4.4-1c0.8,0,1.5,0.1,2.4,0.3c0.8,0.3,1.6,0.6,2.4,1.1V70c0-0.4-0.1-0.8-0.4-1.1s-0.6-0.6-1-0.9
	c-0.4-0.3-0.9-0.4-1.5-0.5c-0.5-0.1-1.1-0.1-1.6-0.1c-1.4,0-2.4,0.1-3,0.5s-1,0.8-1,1.3v1.8h-5.4v-1.8c0-0.9,0.3-1.8,0.8-2.5
	c0.5-0.9,1.3-1.5,2.1-2.1c0.9-0.6,1.9-1.1,3-1.5c1.1-0.4,2.3-0.5,3.5-0.5s2.5,0.1,3.6,0.5c1.1,0.4,2.1,0.9,3.1,1.5
	c0.9,0.6,1.6,1.5,2.1,2.4c0.5,0.9,0.8,2,0.8,3.1L219.5,87.7z M214.1,82.7c0-1-0.1-1.8-0.4-2.5c-0.3-0.6-0.5-1.3-1-1.6
	c-0.4-0.4-0.9-0.8-1.5-1c-0.5-0.3-1.1-0.3-1.8-0.3c-0.8,0-1.5,0.1-2,0.5c-0.6,0.4-1.1,0.8-1.5,1.3c-0.4,0.5-0.8,1.1-0.9,1.8
	c-0.3,0.6-0.3,1.3-0.3,2v4.5c0,0.9,0.1,1.6,0.4,2.3s0.5,1.3,1,1.8c0.4,0.5,0.9,0.9,1.5,1.1c0.6,0.3,1.3,0.4,2,0.4
	c1.4,0,2.5-0.5,3.3-1.4c0.8-0.9,1.1-2.3,1.1-4L214.1,82.7L214.1,82.7z M268.4,88.8c0,1.1-0.3,2.3-0.6,3.3s-1,2-1.9,2.8
	c-0.9,0.8-1.9,1.5-3.1,1.9c-1.3,0.5-2.6,0.8-4.3,0.8s-3.1-0.3-4.4-0.8c-1.3-0.5-2.3-1.1-3.1-2c-0.9-0.8-1.5-1.8-1.9-2.8
	c-0.4-1-0.6-2-0.6-3v-1.6c0-0.5,0-1,0.1-1.5c0.1-0.5,0.3-1,0.5-1.6c0.3-0.5,0.5-1,0.9-1.5c0.4-0.5,0.8-1,1.4-1.5l4.4,2
	c-0.8,0.8-1.3,1.5-1.5,2.3c-0.3,0.8-0.4,1.4-0.4,2v1.3c0,0.5,0.1,1,0.3,1.5c0.3,0.5,0.5,0.9,0.9,1.3c0.4,0.4,0.9,0.6,1.5,0.9
	s1.3,0.3,2,0.3c1.6,0,2.8-0.4,3.5-1c0.8-0.6,1.1-1.6,1.1-2.8v-3.5c0-0.4,0-0.8-0.1-1.3c-0.1-0.5-0.3-0.9-0.4-1.4
	c-0.1-0.4-0.4-0.8-0.6-1c-0.3-0.3-0.6-0.4-1-0.4h-3.1v-4.9h3.1c0.5,0,0.8-0.1,1-0.5s0.5-0.8,0.6-1.3s0.3-1,0.3-1.5c0-0.5,0-1,0-1.4
	v-1c0-0.4-0.1-0.9-0.3-1.3c-0.1-0.4-0.4-0.8-0.8-1.1c-0.4-0.4-0.8-0.6-1.3-0.8c-0.5-0.3-1.1-0.3-1.9-0.3c-0.6,0-1.3,0.1-1.6,0.3
	c-0.5,0.3-0.9,0.4-1.3,0.8c-0.4,0.3-0.6,0.6-0.8,0.9c-0.1,0.4-0.3,0.6-0.3,1v0.6c0,0.4,0,0.6,0,0.9c0,0.3,0,0.5,0.1,0.6
	c0,0.3,0.1,0.4,0.3,0.6c0.1,0.3,0.3,0.5,0.4,0.8l-3.9,2.1c-0.4-0.5-0.8-1-1-1.4c-0.3-0.4-0.5-0.8-0.8-1.1c-0.1-0.4-0.4-0.8-0.4-1.1
	c-0.1-0.4-0.1-0.8-0.1-1.3v-1c0-0.9,0.3-1.8,0.8-2.6c0.5-0.9,1.1-1.8,2-2.5c0.9-0.8,1.9-1.4,3-1.8c1.1-0.5,2.4-0.8,3.8-0.8
	c1.6,0,3,0.3,4.1,0.8c1.3,0.5,2.1,1.1,3,1.9c0.8,0.8,1.4,1.6,1.8,2.6c0.4,1,0.6,2,0.6,3V72c0,0.4,0,0.9,0,1.4c0,0.5-0.1,1.1-0.3,1.6
	c-0.1,0.6-0.5,1.3-0.9,1.9s-1,1.3-1.6,1.9c0.8,0.5,1.4,1.1,1.8,1.6c0.4,0.5,0.8,1.1,0.9,1.6c0.1,0.6,0.3,1.1,0.4,1.6
	c0,0.5,0,1,0,1.5v3.6H268.4z M293.6,83.4c0,1.5-0.1,3-0.4,4.6c-0.3,1.5-0.6,3-1.3,4.3c-0.6,1.4-1.4,2.5-2.4,3.4c-1,1-2.4,1.6-4.1,2
	l-0.5-5.1c1,0,1.9-0.8,2.4-2.4s0.8-3.8,0.8-6.6v-7.9c0-1.3-0.1-2.4-0.3-3.5c-0.1-1-0.4-1.9-0.8-2.6c-0.4-0.8-0.8-1.3-1.4-1.6
	s-1.3-0.5-2.1-0.5c-1,0-1.8,0.3-2.4,0.6c-0.6,0.4-1.1,0.9-1.5,1.6s-0.6,1.6-0.8,2.6c-0.1,1-0.3,2.3-0.3,3.5v7.8c0,1.4,0,2.6,0.1,3.8
	c0.1,1.1,0.3,2,0.4,2.9c0.1,0.8,0.4,1.4,0.8,1.8c0.3,0.4,0.8,0.6,1.1,0.6v5.1c-1.1-0.3-2.1-0.6-3-1.1c-0.9-0.5-1.5-1.1-2.1-1.9
	c-0.5-0.8-1-1.5-1.4-2.5c-0.4-0.9-0.6-1.9-0.8-2.8c-0.1-1-0.3-2-0.4-3c0-1-0.1-2-0.1-2.9v-7.8c0-1,0-2.1,0.1-3.1
	c0.1-1,0.3-2.1,0.6-3.1c0.3-1,0.6-1.9,1.1-2.8s1.1-1.6,1.9-2.3c0.8-0.6,1.6-1.1,2.6-1.5s2.3-0.5,3.6-0.5c2.1,0,3.8,0.4,5.1,1.1
	c1.3,0.8,2.4,1.6,3,2.9c0.8,1.3,1.3,2.6,1.5,4.1c0.3,1.6,0.4,3.3,0.4,5L293.6,83.4z M331.3,86.1c0,0.8-0.1,1.5-0.4,2.3
	c-0.3,0.9-0.6,1.6-1.1,2.5c-0.5,0.9-1,1.6-1.8,2.5c-0.6,0.8-1.4,1.5-2.3,2.1c-0.9,0.6-1.8,1.1-2.6,1.5c-1,0.4-2,0.6-3,0.6v-4.9
	c0.8,0,1.5-0.3,2.3-0.6c0.8-0.4,1.3-1,1.9-1.6c0.5-0.6,0.9-1.4,1.3-2.1c0.3-0.8,0.5-1.5,0.5-2.1v-3.3c0-1.3-0.1-2.1-0.4-2.9
	c-0.3-0.8-0.6-1.4-1.1-1.8c-0.4-0.4-0.9-0.8-1.4-0.9c-0.5-0.1-0.9-0.3-1.3-0.3c-0.5,0-0.9,0.1-1.4,0.3c-0.5,0.1-1,0.5-1.4,0.9
	c-0.4,0.4-0.8,1-1,1.6c-0.3,0.6-0.4,1.5-0.4,2.5v6h-5.6v-6c0-1-0.1-1.9-0.4-2.5s-0.6-1.3-1-1.6c-0.4-0.4-0.9-0.8-1.4-0.9
	c-0.5-0.1-1-0.3-1.4-0.3c-0.5,0-1,0.1-1.5,0.3c-0.5,0.1-1,0.5-1.4,0.9c-0.4,0.4-0.8,1-1,1.8s-0.4,1.8-0.4,2.9v3.4
	c0,0.6,0.1,1.3,0.4,2s0.6,1.4,1.1,2.1c0.5,0.6,1.1,1.1,1.9,1.6c0.8,0.4,1.5,0.6,2.4,0.6v4.9c-1.3,0-2.4-0.3-3.4-0.6
	c-1-0.4-2-0.9-2.8-1.5c-0.9-0.6-1.5-1.4-2.1-2.1c-0.6-0.8-1.1-1.6-1.6-2.5c-0.4-0.9-0.8-1.8-0.9-2.5c-0.3-0.9-0.4-1.6-0.4-2.3v-3.1
	c0-1.6,0.1-3.3,0.4-5c0.3-1.6,0.8-3.3,1.5-4.8c0.8-1.5,1.6-2.9,2.9-4.3c1.3-1.3,2.8-2.4,4.6-3.4c1.9-1,4-1.8,6.6-2.3
	c2.5-0.5,5.5-0.9,8.9-0.9v4.9c-4.1,0-7.6,0.5-10.5,1.4c-2.8,0.9-5,2.3-6.5,3.9l1.5-0.4c0.6,0,1.3,0,1.9,0.1c0.6,0.1,1.3,0.3,1.9,0.6
	c0.6,0.3,1.1,0.6,1.8,1.1c0.5,0.5,1,1.1,1.5,2c0.5-0.8,1-1.4,1.6-1.9s1.1-0.9,1.8-1.1c0.6-0.3,1.3-0.5,1.8-0.6
	c0.6-0.1,1.1-0.1,1.8-0.1c1.3,0,2.4,0.1,3.5,0.5s2.1,1,3,1.8c0.9,0.9,1.6,1.9,2.1,3.3c0.5,1.4,0.8,3,0.8,4.9v3.4H331.3z M355.3,88.8
	c0,1.1-0.3,2.3-0.6,3.3c-0.4,1-1,2-1.9,2.8c-0.9,0.8-1.9,1.5-3.1,1.9c-1.3,0.5-2.6,0.8-4.3,0.8c-1.6,0-3.1-0.3-4.4-0.8
	c-1.3-0.5-2.3-1.1-3.1-2C337,94,336.4,93,336,92c-0.4-1-0.6-2-0.6-3v-1.6c0-0.5,0-1,0.1-1.5c0.1-0.5,0.3-1,0.5-1.6
	c0.3-0.5,0.5-1,0.9-1.5c0.4-0.5,0.8-1,1.4-1.5l4.4,2c-0.8,0.8-1.3,1.5-1.5,2.3c-0.3,0.8-0.4,1.4-0.4,2v1.3c0,0.5,0.1,1,0.3,1.5
	c0.3,0.5,0.5,0.9,0.9,1.3c0.4,0.4,0.9,0.6,1.5,0.9s1.3,0.3,2,0.3c1.6,0,2.8-0.4,3.5-1c0.8-0.6,1.1-1.6,1.1-2.8v-3.5
	c0-0.4,0-0.8-0.1-1.3c-0.1-0.5-0.3-0.9-0.4-1.4c-0.1-0.4-0.4-0.8-0.6-1c-0.3-0.3-0.6-0.4-1-0.4h-3.3v-4.9h3.1c0.5,0,0.8-0.1,1-0.5
	c0.3-0.4,0.5-0.8,0.6-1.3c0.1-0.5,0.3-1,0.3-1.5c0-0.5,0-1,0-1.4v-1c0-0.4-0.1-0.9-0.3-1.3c-0.1-0.4-0.4-0.8-0.8-1.1
	c-0.4-0.4-0.8-0.6-1.3-0.8c-0.5-0.3-1.1-0.3-1.9-0.3c-0.6,0-1.3,0.1-1.6,0.3c-0.5,0.3-0.9,0.4-1.3,0.8c-0.4,0.3-0.6,0.6-0.8,0.9
	c-0.1,0.4-0.3,0.6-0.3,1v0.6c0,0.4,0,0.6,0,0.9c0,0.3,0,0.5,0.1,0.6c0,0.3,0.1,0.4,0.3,0.6c0.1,0.3,0.3,0.5,0.5,0.8l-3.9,2.1
	c-0.4-0.5-0.8-1-1-1.4c-0.3-0.4-0.5-0.8-0.8-1.1c-0.1-0.4-0.4-0.8-0.4-1.1c-0.1-0.4-0.1-0.8-0.1-1.3v-1c0-0.9,0.3-1.8,0.8-2.6
	c0.5-0.9,1.1-1.8,2-2.5c0.9-0.8,1.9-1.4,3-1.8c1.1-0.5,2.4-0.8,3.8-0.8c1.6,0,3,0.3,4.1,0.8c1.3,0.5,2.1,1.1,3,1.9
	c0.8,0.8,1.4,1.6,1.8,2.6c0.4,1,0.6,2,0.6,3V72c0,0.4,0,0.9,0,1.4c0,0.5-0.1,1.1-0.3,1.6c-0.1,0.6-0.5,1.3-0.9,1.9
	c-0.4,0.6-1,1.3-1.6,1.9c0.8,0.5,1.4,1.1,1.8,1.6c0.4,0.5,0.8,1.1,0.9,1.6c0.1,0.6,0.3,1.1,0.4,1.6c0,0.5,0,1,0,1.5v3.6H355.3z
	 M379.9,86.9c0,7.2-3.4,10.7-10,10.7c-1.6,0-3.1-0.3-4.4-0.9c-1.3-0.5-2.3-1.3-3.1-2.3c-0.9-1-1.5-2-1.9-3.3c-0.4-1.3-0.6-2.5-0.6-4
	v-1.5c0-0.5,0.1-1,0.3-1.6c0.1-0.5,0.4-1.1,0.6-1.8c0.3-0.6,0.6-1.1,1-1.8c0.4-0.6,0.8-1.3,1.3-1.9l4.1,2c-0.6,1.1-1,2.1-1.4,2.9
	c-0.3,0.9-0.4,1.5-0.4,1.9v1.6c0,0.9,0.1,1.6,0.3,2.3c0.1,0.6,0.4,1.3,0.8,1.6c0.4,0.5,0.9,0.8,1.4,1c0.6,0.3,1.3,0.4,2.1,0.4
	c0.8,0,1.5-0.1,2.1-0.3c0.6-0.3,1-0.5,1.4-1c0.4-0.5,0.6-1.1,0.9-1.8c0.1-0.8,0.3-1.6,0.3-2.8v-2.4c0-0.9-0.1-1.8-0.4-2.5
	c-0.3-0.8-0.6-1.5-1-2.1c-0.4-0.6-0.9-1.3-1.4-1.9c-0.5-0.6-1.1-1.3-1.6-1.8c-0.6-0.6-1.3-1.4-1.9-2s-1.1-1.4-1.6-2.1
	c-0.5-0.8-0.9-1.6-1.1-2.5c-0.3-0.9-0.4-1.9-0.4-3v-3.8h5.1v3.8c0,0.6,0.1,1.3,0.4,1.9c0.3,0.6,0.5,1.1,0.9,1.8
	c0.4,0.5,0.8,1.1,1.3,1.6s1,1.1,1.5,1.6l0,0c0.8,0.8,1.4,1.5,2,2.3c0.6,0.8,1.3,1.6,1.9,2.5c0.5,0.9,1,1.9,1.4,3
	c0.4,1.1,0.5,2.3,0.5,3.5v2.5H379.9z M425.8,75.9c0,0.6-0.1,1.4-0.3,2.1s-0.5,1.6-0.8,2.5c-0.4,0.9-0.8,1.8-1.3,2.6
	c-0.5,0.9-1,1.6-1.6,2.5c-0.6,0.8-1.3,1.5-1.9,2.1s-1.4,1.1-2.1,1.6l-3.6-3.3c1-0.8,1.8-1.5,2.5-2.4c0.8-0.9,1.4-1.9,1.9-2.8
	c0.5-1,1-1.9,1.3-2.8c0.3-0.9,0.4-1.8,0.4-2.4v-2.6c0-0.9-0.1-1.6-0.3-2.4c-0.1-0.6-0.4-1.3-0.8-1.6c-0.4-0.5-0.6-0.8-1.1-1
	c-0.4-0.3-0.9-0.4-1.4-0.4c-0.8,0-1.4,0.1-1.9,0.4c-0.5,0.3-0.9,0.6-1.1,1c-0.3,0.4-0.5,1-0.6,1.5c-0.1,0.6-0.1,1.3-0.1,1.9V79h-5.1
	v-6.4c0-0.6,0-1.3-0.1-1.9s-0.3-1.1-0.5-1.6c-0.3-0.5-0.5-0.9-1-1.1c-0.4-0.3-1-0.4-1.6-0.4s-1.1,0.1-1.5,0.4
	c-0.4,0.3-0.8,0.6-1,1.1c-0.3,0.5-0.4,1-0.5,1.5c-0.1,0.6-0.1,1.1-0.1,1.8v6.5h-5.1v-6.5c0-0.6,0-1.1-0.1-1.8c0-0.6-0.3-1-0.4-1.5
	c-0.3-0.4-0.6-0.8-1.1-1c-0.5-0.3-1.1-0.4-2-0.4c-0.6,0-1.1,0.1-1.6,0.5c-0.5,0.4-0.9,0.8-1.1,1.3c-0.3,0.5-0.5,1.3-0.6,2
	c-0.1,0.8-0.3,1.5-0.3,2.4v2.9c0,1.5,0.3,2.9,0.8,4.3s1.3,2.5,2.3,3.6c1,1.1,2.1,2.1,3.5,3c1.4,0.9,2.9,1.6,4.5,2.3
	c1.6,0.6,3.4,1.1,5.3,1.4c1.9,0.4,3.8,0.5,5.8,0.5h4.3v5.4h-4.1c-2.9,0-5.6-0.3-8.1-0.8c-2.5-0.5-4.8-1.3-6.8-2.3
	c-2-1-3.8-2-5.4-3.4c-1.5-1.3-2.9-2.6-3.9-4.1s-1.9-3.1-2.4-4.8s-0.9-3.4-0.9-5v-3.1c0-1.5,0.1-3,0.5-4.4c0.4-1.4,0.9-2.5,1.6-3.5
	c0.8-1,1.6-1.8,2.8-2.3c1.1-0.5,2.5-0.9,4-0.9c0.6,0,1.3,0.1,1.9,0.3c0.6,0.1,1.1,0.4,1.6,0.6c0.5,0.4,1,0.8,1.5,1.1
	c0.5,0.5,0.9,1,1.4,1.6c0.6-1.3,1.5-2.3,2.4-2.9c0.9-0.8,2-1,3.3-1s2.4,0.4,3.3,1c1,0.6,1.8,1.6,2.5,2.9c0.9-1.3,1.9-2.1,3-2.8
	s2.1-0.9,3.3-0.9c1.3,0,2.4,0.3,3.5,0.6c1.1,0.5,2,1.1,2.9,2c0.8,0.9,1.4,1.9,1.9,3.1s0.8,2.8,0.8,4.4V75.9z M457.8,76.4
	c0-1.3,0-2.5-0.1-3.6c-0.1-1.1-0.3-2-0.5-2.9c-0.3-0.8-0.6-1.4-1.3-1.9c-0.5-0.5-1.4-0.6-2.3-0.6c-2.8,0-4.1,1.8-4.1,5.1v13.7h-5.4
	V72.6c0-1.8-0.4-3.1-1-3.9c-0.6-0.8-1.8-1.3-3.3-1.3c-0.9,0-1.6,0.3-2.1,0.6c-0.5,0.5-1,1.1-1.3,1.9c-0.3,0.8-0.5,1.8-0.6,2.9
	c-0.1,1.1-0.1,2.4-0.1,3.6v5.6c0,1.3,0.1,2.5,0.4,3.8c0.3,1.3,0.5,2.4,1,3.4c0.5,1,1,1.8,1.8,2.4s1.6,0.9,2.6,0.9v4.9
	c-1.5,0-2.8-0.3-3.9-0.6c-1.1-0.4-2.1-1-2.9-1.8c-0.9-0.8-1.5-1.6-2.1-2.6c-0.5-1-1-2-1.4-3.1c-0.4-1.1-0.6-2.3-0.8-3.5
	c-0.1-1.3-0.3-2.4-0.3-3.5v-5.6c0-1.1,0-2.4,0.1-3.5c0.1-1.1,0.3-2.3,0.5-3.3c0.3-1,0.6-2,1-2.9c0.4-0.9,1-1.6,1.8-2.4
	c0.8-0.6,1.6-1.1,2.6-1.5c1-0.4,2.3-0.5,3.6-0.5c0.8,0,1.5,0.1,2.3,0.4c0.6,0.3,1.3,0.5,1.8,0.9c0.5,0.4,1,0.8,1.5,1.3
	c0.5,0.5,0.9,1,1.3,1.5c0.4-0.5,0.8-1,1.3-1.5c0.5-0.5,1-0.9,1.5-1.3c0.6-0.4,1.3-0.6,1.9-0.9c0.8-0.3,1.5-0.4,2.3-0.4
	c1.4,0,2.5,0.1,3.5,0.5c1,0.4,1.9,0.9,2.5,1.5c0.8,0.6,1.3,1.4,1.8,2.3c0.5,0.9,0.8,1.9,1.1,2.9c0.3,1,0.5,2.1,0.5,3.3
	c0.1,1.1,0.1,2.3,0.1,3.4v6c0,1.1-0.1,2.3-0.3,3.4c-0.1,1.1-0.4,2.4-0.8,3.5c-0.4,1.1-0.9,2.3-1.4,3.3c-0.6,1-1.3,1.9-2.1,2.6
	c-0.9,0.8-1.8,1.4-2.9,1.8c-1.1,0.5-2.4,0.6-3.8,0.6v-4.9c1,0,1.8-0.3,2.5-0.9s1.3-1.4,1.8-2.4c0.5-1,0.9-2.1,1.1-3.4
	s0.4-2.5,0.4-3.9v-5.8H457.8z M476.1,62.5c0,0.5,0.1,1,0.3,1.4s0.4,0.8,0.6,1c0.3,0.3,0.5,0.5,0.8,0.6c0.3,0.1,0.6,0.4,0.9,0.5
	c0.4,0.3,0.9,0.5,1.3,0.6c0.4,0.3,0.8,0.5,1.1,0.9c0.4,0.4,0.6,0.6,0.9,1.1c0.3,0.4,0.3,0.9,0.3,1.5c0,0.8,0,1.4-0.1,1.9
	c-0.1,0.5-0.3,1-0.5,1.5c1,0.4,2,1,2.8,1.8c0.8,0.8,1.5,1.5,2,2.4c0.5,0.9,0.9,1.8,1.3,2.8c0.3,1,0.4,1.9,0.4,2.8v4.8
	c0,0.6-0.1,1.4-0.3,2.1c-0.3,0.8-0.5,1.5-0.9,2.3c-0.4,0.8-0.9,1.4-1.4,2.1c-0.5,0.6-1.3,1.3-2,1.8c-0.8,0.5-1.6,0.9-2.5,1.3
	c-0.9,0.3-1.9,0.5-3,0.5c-1.6,0-3.1-0.3-4.4-0.9s-2.3-1.4-3.1-2.3c-0.9-1-1.5-2-1.9-3.1c-0.4-1.1-0.6-2.4-0.6-3.5v-4.6
	c0-1,0.1-2.1,0.5-3.1c0.3-1.1,0.8-2,1.4-3c0.6-0.9,1.5-1.8,2.5-2.4c1-0.6,2.3-1.1,3.8-1.5c0.1-0.4,0.3-0.6,0.4-0.9
	c0.1-0.3,0.1-0.5,0.1-0.8s0.1-0.4,0.1-0.6s0-0.4,0-0.6c-0.1-0.1-0.3-0.3-0.5-0.4c-0.3-0.1-0.6-0.4-1.1-0.6c-0.5-0.3-1-0.5-1.5-0.9
	c-0.5-0.4-1-0.8-1.4-1.3c-0.4-0.5-0.8-1.1-1-1.9c-0.3-0.8-0.4-1.6-0.4-2.8h5.4V62.5z M473.2,87.2c0,0.8,0.1,1.4,0.3,2
	c0.1,0.6,0.5,1.3,0.9,1.8c0.4,0.5,0.9,0.9,1.4,1.3c0.6,0.3,1.3,0.5,2.1,0.5c0.9,0,1.5-0.1,2.1-0.5s1-0.8,1.4-1.3
	c0.4-0.5,0.6-1,0.8-1.6c0.1-0.6,0.3-1.3,0.3-1.8v-4.4c0-0.6-0.1-1.3-0.3-1.9c-0.1-0.6-0.5-1.3-0.9-1.8c-0.4-0.5-0.9-1-1.4-1.3
	c-0.6-0.4-1.3-0.5-2-0.5c-0.9,0-1.5,0.1-2.1,0.5c-0.6,0.3-1,0.8-1.4,1.3c-0.4,0.5-0.6,1.1-0.8,1.8c-0.1,0.6-0.3,1.4-0.3,2.1v3.8
	H473.2z M512,86.9c0,7.2-3.4,10.7-10,10.7c-1.6,0-3.1-0.3-4.4-0.9c-1.3-0.5-2.3-1.3-3.1-2.3c-0.9-1-1.5-2-1.9-3.3
	c-0.4-1.3-0.6-2.5-0.6-4v-1.5c0-0.5,0.1-1,0.3-1.6c0.1-0.5,0.4-1.1,0.6-1.8c0.3-0.6,0.6-1.1,1-1.8c0.4-0.6,0.8-1.3,1.3-1.9l4.1,2
	c-0.6,1.1-1,2.1-1.4,2.9c-0.3,0.9-0.5,1.5-0.5,1.9v1.6c0,0.9,0.1,1.6,0.3,2.3s0.4,1.3,0.8,1.6c0.4,0.5,0.9,0.8,1.4,1
	c0.6,0.3,1.3,0.4,2.1,0.4c0.8,0,1.5-0.1,2.1-0.3c0.6-0.3,1-0.5,1.4-1c0.4-0.5,0.6-1.1,0.9-1.8c0.1-0.8,0.3-1.6,0.3-2.8v-2.4
	c0-0.9-0.1-1.8-0.4-2.5c-0.3-0.8-0.6-1.5-1-2.1c-0.4-0.6-0.9-1.3-1.4-1.9c-0.5-0.6-1.1-1.3-1.6-1.8c-0.6-0.6-1.3-1.4-1.9-2
	s-1.1-1.4-1.6-2.1c-0.5-0.8-0.9-1.6-1.1-2.5c-0.3-0.9-0.4-1.9-0.4-3v-3.8h5.1v3.8c0,0.6,0.1,1.3,0.4,1.9c0.3,0.6,0.5,1.1,0.9,1.8
	c0.4,0.5,0.8,1.1,1.3,1.6c0.5,0.5,1,1.1,1.5,1.6l0,0c0.8,0.8,1.4,1.5,2,2.3c0.6,0.8,1.3,1.6,1.9,2.5c0.5,0.9,1,1.9,1.4,3
	c0.4,1.1,0.5,2.3,0.5,3.5L512,86.9L512,86.9z M171.2,86.9c0,1.1-0.3,2.4-0.8,3.6s-1.1,2.4-2,3.4c-0.9,1-2.1,1.9-3.5,2.5
	c-1.5,0.6-3.1,1-5.1,1c-1.3,0-2.3-0.1-3.4-0.5c-1-0.4-2-0.8-2.8-1.3c-0.9-0.5-1.6-1.1-2.3-1.9c-0.6-0.8-1.1-1.5-1.6-2.3
	c-0.4-0.8-0.8-1.6-1-2.4c-0.3-0.8-0.4-1.5-0.4-2.3v-2.5c0-1.4,0.3-2.6,0.6-3.9c0.5-1.3,1.1-2.4,2.1-3.4c0.9-1,2.1-1.9,3.5-2.5
	c1.4-0.6,5.8-1.3,5.8-1.3s1.8-0.4,1.8-3.4c0-1.8-1.3-2.6-2.9-2.6c-1.4,0-3,0.6-3,2.4V71h-5v-1.9c0-1,0.3-1.9,0.8-2.8
	s1.1-1.5,1.9-2.1c0.8-0.6,1.6-1,2.6-1.4s2-0.5,3-0.5c4.1,0,7.9,2.3,7.9,7.4c0,3-2,4.4-2,4.4c0.8,0.4,1.1,0.8,1.8,1.3
	c0.8,0.6,1.5,1.3,2.1,2.1c0.6,0.9,1.1,1.8,1.5,2.8c0.4,1,0.5,2.3,0.5,3.5L171.2,86.9z M165.8,83.9c0-0.6-0.1-1.3-0.4-1.9
	c-0.3-0.6-0.5-1.3-0.9-1.9c-0.4-0.5-1-1-1.6-1.4c-0.6-0.4-1.4-0.5-2.3-0.5h-1.4c-0.9,0-1.6,0.1-2.4,0.4c-0.6,0.3-1.3,0.8-1.8,1.3
	c-0.5,0.5-0.9,1.3-1.1,2c-0.3,0.8-0.4,1.6-0.4,2.6v2c0,0.8,0.1,1.4,0.4,2.1s0.6,1.4,1.1,2s1.1,1,1.9,1.4c0.8,0.4,1.6,0.5,2.6,0.5
	c1,0,1.9-0.1,2.6-0.5c0.8-0.3,1.4-0.8,1.9-1.3c0.5-0.5,0.9-1.1,1.1-1.9c0.3-0.8,0.4-1.5,0.4-2.4v-2.6H165.8z M186.8,119.3
	c0,0.8-0.1,1.4-0.4,1.9c-0.3,0.5-0.6,1-1.1,1.4c-0.5,0.4-1,0.6-1.6,0.9s-1.4,0.3-2.1,0.3c-0.8,0-1.4-0.1-2-0.4
	c-0.6-0.3-1.1-0.5-1.6-0.9c-0.5-0.4-0.9-0.9-1.1-1.5c-0.3-0.6-0.4-1.3-0.4-1.9v-0.4c0-0.4,0.1-0.6,0.3-1c0.1-0.4,0.5-0.6,0.8-1
	l2.3,1c-0.4,0.5-0.5,1-0.5,1.5c0,0.6,0.3,1,0.6,1.4c0.4,0.4,1,0.5,1.9,0.5c0.4,0,0.6,0,1-0.1c0.3-0.1,0.5-0.1,0.8-0.4
	c0.3-0.1,0.4-0.4,0.5-0.5c0.1-0.3,0.1-0.5,0.1-0.8v-7c0-1.5-0.4-2.3-2.1-2.3c-1.1,0-1.8,0.5-1.8,1.8c0,0.3,0,0.5,0.1,0.8
	c0.1,0.3,0.3,0.4,0.4,0.6l-1.9,1.1c-0.3-0.1-0.5-0.4-0.6-0.5c-0.1-0.3-0.4-0.4-0.4-0.6c-0.1-0.3-0.1-0.5-0.3-0.8
	c0-0.3-0.1-0.9-0.1-1.1c0-2,1.6-3.6,3.6-3.6c0.6,0,1.1,0.1,1.6,0.4c0.5,0.3,0.9,0.5,1.3,0.9v-1.8l0,0V105h2.6v14.3H186.8z
	 M242.1,74.1c0.4-0.3,0.9-0.4,1.3-0.6c0.4-0.3,0.8-0.4,1-0.6v-5.4c-0.5,0.5-1,1-1.6,1.4c-0.5,0.4-1.1,0.8-1.6,1.1
	c-0.5,0.4-1,0.6-1.5,0.9c-0.5,0.3-1.1,0.8-1.6,1c0-0.3,0.1-0.4,0.1-0.6c0.1-0.3,0.3-0.4,0.3-0.6c0.1-0.3,0.4-0.8,0.5-0.9
	c0.1-0.1,0.1-0.4,0.1-0.5v-6.9h-8.6v4.4h3.8v2c0,0.4,0,0.8,0,1c0,0.3,0,0.6,0,0.9c-0.4-0.4-0.9-0.9-1.3-1c-0.4-0.3-1.3-0.5-1.8-0.5
	c-0.6,0-2.1-0.1-2.8,0.1s-1.5,0.5-2.3,1.4c-0.4,0.4-1,1.1-1.3,1.9c-0.4,0.8-0.4,1.8-0.4,2.8c0,1.1,0.3,2.1,0.6,3
	c0.4,0.8,1,1.4,1.5,1.8c0.6,0.5,1.3,0.8,2,1c0.8,0.1,1.8,0.3,2.6,0.1c0.6-0.1,1.1-0.4,1.8-0.6c0.6-0.3,0.9-0.6,1.5-1
	c0.1,0.5,0.3,0.9,0.5,1.3c0.1,0.4,0.4,0.8,0.6,1c0.3,0.4,0.5,0.6,0.8,0.9c0.3,0.3,0.5,0.6,0.8,0.9c0.5,0.5,0.9,1,1.3,1.6
	c0.4,0.5,0.5,1,0.5,1.6v1.3c0,0.6-0.1,1.3-0.3,1.9c-0.1,0.5-0.5,1-0.9,1.4c-0.4,0.4-0.9,0.8-1.4,0.9c-0.6,0.3-1.3,0.4-2.1,0.4
	c-0.8,0-1.5-0.1-2-0.4c-0.6-0.3-1-0.6-1.5-1c-0.4-0.5-0.6-1-0.9-1.5c-0.3-0.6-0.3-1.1-0.3-1.9c0-0.3,0-0.5,0-0.8s0.1-0.4,0.1-0.6
	c0-0.3,0.1-0.4,0.3-0.6c0,0,0,0,0-0.1l-5-1.3c-0.3,0.3-0.4,0.5-0.5,0.8c-0.1,0.3-0.3,0.6-0.3,1c0,0.4-0.1,0.9-0.1,1.4
	c0,1.4,0.3,2.6,0.8,3.9c0.5,1.3,1.1,2.3,2,3.1c0.9,0.9,1.9,1.6,3.1,2.1c1.3,0.5,2.6,0.8,4.1,0.8c1.6,0,3-0.3,4.3-0.6
	c1.3-0.4,2.3-1,3.1-1.9c0.9-0.8,1.5-1.8,2-3c0.5-1.1,0.6-2.5,0.6-3.9v-0.9c0-0.6-0.1-1.3-0.3-1.9c-0.3-0.6-0.5-1.1-0.8-1.6
	c-0.4-0.5-0.9-1.3-1.3-1.5c-0.3-0.3-0.6-0.6-0.8-0.9c-0.1-0.1-0.4-0.4-0.5-0.5c-0.1-0.1-0.5-0.5-0.5-0.4c0.1,0.1-0.8-0.6-1.1-1.1
	c-0.3-0.3-0.8-0.8-0.9-1.4c0.4,0.3,0.8,0.4,1,0.5c0.6,0.4,1.9,0.9,2.4,1.1c0.5,0.3,1,0.4,1.5,0.6c0.5,0.3,1,0.5,1.3,0.6v-4.5
	c-1-0.3-2.4-0.6-2.4-0.6s-0.9-0.3-1.3-0.4c-0.3-0.1-0.8-0.3-1.1-0.4c0.4-0.1,0.8-0.4,1.3-0.6C241.2,74.5,241.6,74.4,242.1,74.1z
	 M234.6,76.3c-0.6,0.6-1.6,1.1-2.5,1.4c-1.8,0.5-3.1-0.5-3.1-2.3c0.1-1.6,1.4-2.5,3-2.3c0.5,0.1,1.4,0.5,2.6,1.4
	c0.3,0.3,0.3,0.6,0.3,0.9C234.7,75.8,234.7,76,234.6,76.3z"/>
</svg>
